<svg width="24" height="24" viewBox="0 0 24 24" fill="none" >
<path d="M3.51166 3.52585C3.80455 3.23296 4.27943 3.23296 4.57232 3.52585L11.9998 10.9533L19.4273 3.52585C19.7202 3.23296 20.195 3.23296 20.4879 3.52585C20.7808 3.81874 20.7808 4.29362 20.4879 4.58651L13.0605 12.014L20.46 19.4135C20.7529 19.7064 20.7529 20.1812 20.46 20.4741C20.1671 20.767 19.6922 20.767 19.3993 20.4741L11.9998 13.0747L4.60027 20.4741C4.30737 20.767 3.8325 20.767 3.53961 20.4741C3.24671 20.1812 3.24671 19.7064 3.53961 19.4135L10.9391 12.014L3.51166 4.58651C3.21877 4.29362 3.21877 3.81874 3.51166 3.52585Z" fill="#212121"/>
</svg>
